<?xml version="1.0" encoding="utf-8"?>
<!-- Generator: Adobe Illustrator 26.0.1, SVG Export Plug-In . SVG Version: 6.00 Build 0)  -->
<svg version="1.1" id="Layer_1" xmlns="http://www.w3.org/2000/svg" xmlns:xlink="http://www.w3.org/1999/xlink" x="0px" y="0px"
	 viewBox="0 0 5000 5000" style="enable-background:new 0 0 5000 5000;" xml:space="preserve">
<g>
	<path d="M606.77,2981.58l-26.9-128.96h161.38c11.72,0,17.59-4.77,17.59-14.32v-126.1c0-9.55-2.07-15.28-6.21-17.19
		c-4.14-1.91-11.38-2.86-21.72-2.86h-77.58c-11.04,0-21.56-0.79-31.55-2.39c-10.01-1.58-18.98-5.25-26.9-10.99
		c-7.94-5.73-14.14-13.69-18.62-23.88c-4.49-10.18-6.72-23.89-6.72-41.08v-234.99c0-27.37,8.1-49.2,24.31-65.44
		c16.2-16.24,41.9-24.36,77.07-24.36H877.8l25.86,128.96H734.01c-12.41,0-18.62,5.11-18.62,15.29v126.09
		c0,7.02,1.89,11.79,5.69,14.33c3.78,2.55,9.47,3.82,17.07,3.82h94.14c24.13,0,42.57,5.26,55.34,15.76
		c12.75,10.51,19.14,28.83,19.14,54.93v228.31c0,38.21-8.45,65.29-25.34,81.2c-16.91,15.92-46.73,23.88-89.48,23.88H606.77z"/>
	<path d="M1254.33,2289.01l37.24,128.96h-100.34v563.61h-153.1v-563.61H937.79l39.31-128.96H1254.33z"/>
	<path d="M1332.95,2289.01h291.72l25.86,128.96h-163.44v164.31h124.13v119.41h-124.13v150.93h157.23l-25.86,128.96h-285.51V2289.01z
		"/>
	<path d="M2323.96,2586.1l76.55-297.09h155.17l-90,319.06l88.97,373.51h-164.48l-58.96-285.63h-30v285.63h-153.1v-692.57h153.1
		v297.09H2323.96z"/>
	<path d="M3022.2,2289.01l37.24,128.96H2959.1v563.61H2806v-563.61h-100.34l39.31-128.96H3022.2z"/>
	<path d="M3489.77,2883.18c0,13.38-1.73,25.95-5.17,37.73c-3.46,11.8-9.31,22.14-17.59,31.05c-8.28,8.93-19.31,16.1-33.1,21.5
		c-13.8,5.42-31.03,8.12-51.72,8.12H3208.4c-20.69,0-37.93-2.7-51.72-8.12c-13.8-5.4-24.83-12.57-33.1-21.5
		c-8.28-8.91-14.14-19.25-17.59-31.05c-3.46-11.78-5.17-24.36-5.17-37.73v-504.38c0-27.37,8.1-49.2,24.31-65.44
		c16.2-16.24,41.89-24.36,77.06-24.36h186.21c35.17,0,60.86,8.12,77.07,24.36c16.2,16.24,24.31,38.06,24.31,65.44V2883.18z
		 M3265.3,2410.33c-8.98,0-13.45,4.46-13.45,13.37v422.23c0,5.11,0.85,8.76,2.58,10.99c1.71,2.24,5.69,3.34,11.9,3.34h56.89
		c6.21,0,10.16-1.11,11.89-3.34c1.71-2.23,2.59-5.88,2.59-10.99V2423.7c0-8.9-4.49-13.37-13.45-13.37H3265.3z"/>
	<path d="M4010.09,2289.01h153.1l-117.93,692.57h-136.55l-62.07-361.09l-61.03,361.09h-136.55l-117.93-692.57h153.1l47.58,403.13
		l61.03-403.13h108.62l60,403.13L4010.09,2289.01z"/>
	<path d="M4204.57,2289.01h142.76l76.55,277.99v-277.99h154.13v692.57h-154.13l-80.69-289.45v289.45h-138.62V2289.01z"/>
	<path d="M3418.73,1850.87c-21.88,44.57-36.52,72.14-72.49,109.61c-63.22,65.86-120.7,84.47-242.6,97.95
		c-256.99,28.42-916.38,0.84-980.53,0.84c-87.93,0-136.39,78.58-146.99,154.62c-8.09,57.98-33.88,238.85-33.88,238.85h-15.07h-33.43
		h-54.77c0,0-25.79-180.87-33.88-238.85c-10.6-76.04-59.06-154.62-146.99-154.62c-64.15,0-723.54,27.58-980.53-0.84
		c-121.9-13.48-179.37-32.09-242.6-97.95c-35.97-37.47-50.61-65.04-72.49-109.61c-8.81-17.93-31.99-80.8-31.99-80.8
		c7.96,33.11,13.66,61.2,22.6,94.16c41.48,152.81,137.76,271.09,350.75,309.34c69.78,12.53,142.78,16.67,214.3,20.62
		c227.07,12.55,411.66,1.19,617.51,1.7c24.64,0.06,51.01-0.89,74,4.58c14.09,3.35,25.25,8.86,33.71,27.45
		c26.98,59.27,166.65,753.67,166.65,753.67h79.53h80.81h0.86c0,0,3.49-17.36,9.47-46.77c0.07-0.3,0.13-0.57,0.19-0.87
		c0-0.01-0.01-0.02-0.01-0.03c32.05-157.77,134.32-656.17,157-705.99c8.46-18.59,19.62-24.09,33.71-27.45
		c22.98-5.47,49.35-4.52,74-4.58c205.84-0.52,390.43,10.84,617.51-1.7c71.53-3.95,144.53-8.09,214.3-20.62
		c212.99-38.26,309.28-156.53,350.75-309.34c8.94-32.95,14.64-61.05,22.6-94.16C3450.72,1770.07,3427.53,1832.93,3418.73,1850.87z
		 M1855.52,2548.51h37.53h27.81h4.83l-6.45,40.46c0.05-2.48,0.09-4.96,0.17-7.43l-28.8,175.24l-0.86-5.22
		c-0.03,3.57-0.02,7.15-0.05,10.72l-0.04,0.27L1855.52,2548.51z"/>
	<g>
		<path d="M583.77,3087.29h24.22v57.94h25.98v-57.94h24.22v142.31h-24.22v-64.04h-25.98v64.04h-24.22V3087.29z"/>
		<path d="M768.7,3087.29h32.8l25.1,142.31h-24.22l-4.4-28.26v0.41h-27.52l-4.4,27.85H743.6L768.7,3087.29z M795.12,3182.43
			l-10.79-70.34h-0.44l-10.57,70.34H795.12z"/>
		<path d="M899.47,3087.29h24.44l15.85,110.39h0.44l15.85-110.39h22.24l-23.34,142.31H922.8L899.47,3087.29z"/>
		<path d="M1063.7,3087.29h66.05v20.33h-41.83v37.61h33.24v20.33h-33.24v43.71h41.83v20.33h-66.05V3087.29z"/>
		<path d="M1345.05,3087.29h32.8l25.1,142.31h-24.22l-4.4-28.26v0.41h-27.52l-4.4,27.85h-22.46L1345.05,3087.29z M1371.47,3182.43
			l-10.79-70.34h-0.44l-10.57,70.34H1371.47z"/>
		<path d="M1602.19,3222.38c-6.02-6.17-9.03-15.01-9.03-26.53v-8.13h22.9v9.76c0,9.22,4.18,13.83,12.55,13.83
			c4.11,0,7.23-1.12,9.36-3.35c2.13-2.24,3.19-5.86,3.19-10.88c0-5.96-1.47-11.21-4.4-15.76c-2.94-4.54-8.37-9.99-16.29-16.37
			c-9.98-8.13-16.95-15.48-20.92-22.06c-3.96-6.57-5.94-13.99-5.94-22.26c0-11.25,3.08-19.96,9.25-26.12
			c6.16-6.17,15.12-9.25,26.86-9.25c11.59,0,20.36,3.08,26.31,9.25c5.94,6.17,8.92,15.01,8.92,26.53v5.9h-22.9v-7.32
			c0-4.88-1.03-8.44-3.08-10.67c-2.06-2.24-5.06-3.35-9.03-3.35c-8.07,0-12.11,4.54-12.11,13.62c0,5.15,1.5,9.96,4.51,14.43
			c3.01,4.47,8.48,9.89,16.4,16.26c10.13,8.13,17.1,15.52,20.92,22.16c3.81,6.64,5.72,14.43,5.72,23.38
			c0,11.66-3.12,20.6-9.36,26.84c-6.24,6.24-15.3,9.35-27.19,9.35C1617.08,3231.63,1608.2,3228.55,1602.19,3222.38z"/>
		<path d="M1771.93,3107.62h-25.32v-20.33h74.85v20.33h-25.32v121.98h-24.22V3107.62z"/>
		<path d="M1906.88,3087.29h66.05v20.33h-41.83v37.61h33.24v20.33h-33.24v43.71h41.83v20.33h-66.05V3087.29z"/>
		<path d="M2079.26,3087.29h32.8l25.1,142.31h-24.22l-4.4-28.26v0.41h-27.52l-4.4,27.85h-22.46L2079.26,3087.29z M2105.68,3182.43
			l-10.79-70.34h-0.44l-10.57,70.34H2105.68z"/>
		<path d="M2222.58,3087.29h24.22v59.97l30.82-59.97h24.22l-28.84,52.25l29.28,90.06h-25.32l-20.47-63.43l-9.69,18.09v45.34h-24.22
			V3087.29z"/>
		<path d="M2496.44,3208.05h23.34v21.55h-23.34V3208.05z"/>
		<path d="M2611.58,3208.05h23.34v21.55h-23.34V3208.05z"/>
		<path d="M2835.69,3087.29h24.22v57.94h25.98v-57.94h24.22v142.31h-24.22v-64.04h-25.98v64.04h-24.22V3087.29z"/>
		<path d="M3020.62,3087.29h32.8l25.1,142.31h-24.22l-4.4-28.26v0.41h-27.52l-4.4,27.85h-22.46L3020.62,3087.29z M3047.04,3182.43
			l-10.79-70.34h-0.44l-10.57,70.34H3047.04z"/>
		<path d="M3151.39,3087.29h24.44l15.85,110.39h0.44l15.85-110.39h22.24l-23.34,142.31h-32.14L3151.39,3087.29z"/>
		<path d="M3315.63,3087.29h66.05v20.33h-41.83v37.61h33.24v20.33h-33.24v43.71h41.83v20.33h-66.05V3087.29z"/>
		<path d="M3596.98,3087.29h32.8l25.1,142.31h-24.22l-4.4-28.26v0.41h-27.52l-4.4,27.85h-22.46L3596.98,3087.29z M3623.4,3182.43
			l-10.79-70.34h-0.44l-10.57,70.34H3623.4z"/>
		<path d="M3849.27,3087.29h36.55c12.47,0,21.58,2.68,27.3,8.03c5.72,5.36,8.59,13.59,8.59,24.7v5.69c0,7.32-1.29,13.28-3.85,17.89
			c-2.57,4.61-6.49,7.93-11.78,9.96v0.41c12.03,3.8,18.05,13.69,18.05,29.68v12.2c0,10.98-3.12,19.35-9.36,25.11
			c-6.24,5.76-15.38,8.64-27.41,8.64h-38.09V3087.29z M3882.95,3145.23c4.84,0,8.48-1.15,10.9-3.46c2.42-2.3,3.63-6.17,3.63-11.59
			v-7.93c0-5.15-0.99-8.88-2.97-11.18c-1.98-2.3-5.1-3.46-9.36-3.46h-11.67v37.61H3882.95z M3887.36,3209.27
			c4.25,0,7.41-1.05,9.47-3.15c2.05-2.1,3.08-5.72,3.08-10.88v-12.4c0-6.5-1.21-11.01-3.63-13.52c-2.42-2.51-6.42-3.76-12-3.76
			h-10.79v43.71H3887.36z"/>
		<path d="M4011.96,3087.29h35.88c12.47,0,21.58,2.68,27.3,8.03c5.72,5.36,8.59,13.59,8.59,24.7v8.74
			c0,14.77-5.28,24.13-15.85,28.06v0.41c5.87,1.63,10.02,4.95,12.44,9.96c2.42,5.02,3.63,11.72,3.63,20.13v25.01
			c0,4.07,0.14,7.35,0.44,9.86c0.29,2.51,1.03,4.98,2.2,7.42h-24.66c-0.88-2.3-1.47-4.47-1.76-6.51c-0.3-2.03-0.44-5.69-0.44-10.98
			v-26.02c0-6.5-1.14-11.04-3.41-13.62c-2.28-2.57-6.2-3.86-11.78-3.86h-8.37v60.99h-24.22V3087.29z M4044.99,3148.28
			c4.84,0,8.48-1.15,10.9-3.46c2.42-2.3,3.63-6.17,3.63-11.59v-10.98c0-5.15-0.99-8.88-2.97-11.18c-1.98-2.3-5.1-3.46-9.36-3.46
			h-11.01v40.66H4044.99z"/>
		<path d="M4174.44,3087.29h66.05v20.33h-41.83v37.61h33.24v20.33h-33.24v43.71h41.83v20.33h-66.05V3087.29z"/>
		<path d="M4346.82,3087.29h32.8l25.1,142.31h-24.22l-4.4-28.26v0.41h-27.52l-4.4,27.85h-22.46L4346.82,3087.29z M4373.23,3182.43
			l-10.79-70.34h-0.44l-10.57,70.34H4373.23z"/>
		<path d="M4490.13,3087.29h24.22v59.97l30.82-59.97h24.22l-28.84,52.25l29.28,90.06h-25.32l-20.47-63.43l-9.69,18.09v45.34h-24.22
			V3087.29z"/>
	</g>
</g>
</svg>
